<svg version="1.1" id="Layer_1" xmlns="http://www.w3.org/2000/svg" x="0" y="0" width="100%" viewBox="0 0 200 200" xml:space="preserve"><path fill="#010101" d="M139 201H1V1h200v200h-62m-18.868-52.832L70.758 49.203l-49.734 99.513h62.028c-1.4-3.197-2.859-5.973-3.848-8.907-1.758-5.214-5.236-7.129-10.626-6.881-6.441.295-12.907.07-20.264.07l22.294-43.915c1.73 3.137 3.14 5.537 4.403 8.013 7.519 14.727 14.863 29.545 22.551 44.183 4.755 9.053 12.832 11.584 22.57 6.89M95.654 61.866c2.676 1.046 5.326 2.905 8.035 2.994 10.653.35 21.33-.077 31.986.233 5.603.163 11.238.949 16.751 2.009 6.234 1.198 10.243 6.114 10.615 12.044.512 8.134-2.06 13.282-8.92 15.314-5.18 1.535-10.727 2.193-16.15 2.459-8.08.396-16.194.102-24.884.102 2.019 4.084 3.697 7.636 5.515 11.114 2.1 4.017 5.247 6.036 10.036 6.04 1.917.002 4.277 1.509 5.676 3.03 8.344 9.07 16.424 18.382 24.7 27.515 1.52 1.678 3.41 3.93 5.34 4.16 6.784.816 13.659.865 20.5 1.205l.361-1.245-31.923-35.73c2.405-.886 4.255-1.247 5.75-2.176 5.712-3.55 12.513-6.243 16.733-11.132 14.838-17.192 4.766-44.225-18.652-47.364-21.908-2.937-44.285-2.381-67.434-3.406 2.27 5.06 3.881 8.65 5.965 12.834z"/><path fill="#F4F4F4" d="M120.242 148.593c-9.848 4.27-17.925 1.739-22.68-7.314-7.688-14.638-15.032-29.456-22.55-44.183-1.264-2.476-2.674-4.876-4.404-8.013l-22.294 43.914c7.357 0 13.823.226 20.264-.07 5.39-.247 8.868 1.668 10.626 6.882.99 2.934 2.448 5.71 3.848 8.907H21.024l49.734-99.513c16.685 33.444 33.03 66.205 49.484 99.39z"/><path fill="#F3F3F3" d="M95.417 61.57c-1.847-3.888-3.458-7.478-5.728-12.537 23.149 1.025 45.526.469 67.434 3.406 23.418 3.139 33.49 30.172 18.652 47.364-4.22 4.89-11.02 7.583-16.732 11.132-1.496.929-3.346 1.29-5.75 2.176l31.922 35.73-.362 1.245c-6.84-.34-13.715-.39-20.499-1.204-1.93-.232-3.82-2.483-5.34-4.16-8.276-9.134-16.356-18.447-24.7-27.517-1.4-1.52-3.759-3.027-5.676-3.03-4.79-.003-7.936-2.022-10.036-6.039-1.818-3.478-3.496-7.03-5.515-11.114 8.69 0 16.804.294 24.884-.102 5.423-.266 10.97-.924 16.15-2.459 6.86-2.032 9.432-7.18 8.92-15.314-.372-5.93-4.38-10.846-10.615-12.044-5.513-1.06-11.148-1.846-16.75-2.009-10.656-.31-21.334.117-31.987-.233-2.709-.09-5.359-1.948-8.272-3.291z"/></svg>